<svg id="svg" version="1.1" xmlns="http://www.w3.org/2000/svg" xmlns:xlink="http://www.w3.org/1999/xlink" width="400" height="249.4" viewBox="0, 0, 400,249.4"><g id="svgg"><path id="path0" d="M170.245 68.711 C 169.811 69.015,169.800 69.120,169.800 72.911 L 169.800 76.800 167.022 76.800 C 163.425 76.800,163.607 76.644,162.802 80.400 C 161.513 86.415,160.177 92.548,159.869 93.864 C 159.215 96.661,159.346 96.800,162.638 96.800 L 165.000 96.800 165.000 113.189 L 165.000 129.577 165.445 129.889 C 165.843 130.167,169.451 130.200,200.000 130.200 C 230.549 130.200,234.157 130.167,234.555 129.889 L 235.000 129.577 235.000 113.189 L 235.000 96.800 237.476 96.800 C 240.710 96.800,240.795 96.706,240.131 93.864 C 239.956 93.114,239.081 89.125,238.186 85.000 C 237.225 80.573,236.431 77.357,236.248 77.150 C 235.980 76.847,235.550 76.800,233.069 76.800 L 230.200 76.800 230.200 72.911 C 230.200 67.993,230.616 68.400,225.586 68.400 C 220.797 68.400,221.200 67.980,221.200 72.966 L 221.200 76.800 200.000 76.800 L 178.800 76.800 178.800 72.931 C 178.800 69.437,178.765 69.030,178.434 68.731 C 177.906 68.253,170.923 68.236,170.245 68.711 M176.800 73.700 L 176.800 76.800 174.400 76.800 L 172.000 76.800 172.000 73.700 L 172.000 70.600 174.400 70.600 L 176.800 70.600 176.800 73.700 M228.000 73.700 L 228.000 76.800 225.600 76.800 L 223.200 76.800 223.200 73.700 L 223.200 70.600 225.600 70.600 L 228.000 70.600 228.000 73.700 M235.483 82.550 C 236.333 86.471,237.021 89.602,237.612 92.225 C 237.825 93.173,238.000 94.096,238.000 94.275 C 238.000 94.571,237.009 94.600,226.811 94.600 L 215.622 94.600 208.050 87.000 C 202.623 81.554,200.351 79.400,200.033 79.400 C 199.718 79.400,197.683 81.283,193.044 85.865 C 189.445 89.421,185.965 92.841,185.310 93.465 L 184.120 94.600 172.990 94.600 L 161.860 94.600 162.341 92.450 C 163.027 89.391,163.634 86.625,164.517 82.550 L 165.286 79.000 200.000 79.000 L 234.714 79.000 235.483 82.550 M207.437 89.450 C 214.079 96.171,214.799 96.964,214.800 97.550 L 214.800 98.200 212.557 98.200 L 210.314 98.200 205.384 93.200 C 201.811 89.576,200.329 88.200,199.999 88.200 C 199.676 88.200,198.295 89.428,195.221 92.450 C 192.843 94.788,190.541 97.038,190.105 97.450 L 189.312 98.200 187.156 98.200 L 185.000 98.200 185.000 97.534 C 185.000 96.925,185.525 96.348,191.046 90.884 C 194.371 87.593,197.724 84.250,198.496 83.456 C 199.268 82.662,199.939 82.010,199.987 82.006 C 200.036 82.003,203.388 85.353,207.437 89.450 M206.587 97.468 C 209.480 100.442,209.396 100.400,212.390 100.400 L 214.800 100.400 214.800 114.200 L 214.800 128.000 211.400 128.000 L 208.000 128.000 208.000 121.727 C 208.000 118.277,207.909 114.976,207.798 114.392 C 206.603 108.087,199.047 105.674,194.468 110.134 C 192.246 112.298,192.007 113.416,192.003 121.650 L 192.000 128.000 188.500 128.000 L 185.000 128.000 185.000 114.200 L 185.000 100.400 187.391 100.400 C 190.453 100.400,189.954 100.716,195.295 95.399 L 199.890 90.824 202.087 92.962 C 203.295 94.138,205.320 96.166,206.587 97.468 M182.800 112.400 L 182.800 128.000 174.900 128.000 L 167.000 128.000 167.000 112.400 L 167.000 96.800 174.900 96.800 L 182.800 96.800 182.800 112.400 M233.000 112.400 L 233.000 128.000 224.900 128.000 L 216.800 128.000 216.800 112.400 L 216.800 96.800 224.900 96.800 L 233.000 96.800 233.000 112.400 M170.314 100.914 C 169.849 101.379,169.847 109.492,170.311 110.155 C 170.724 110.745,179.310 110.861,179.886 110.286 C 180.314 109.858,180.346 101.509,179.922 100.950 C 179.539 100.447,170.814 100.414,170.314 100.914 M220.131 100.966 C 219.647 101.501,219.632 109.803,220.114 110.286 C 220.690 110.861,229.276 110.745,229.689 110.155 C 230.153 109.492,230.151 101.379,229.686 100.914 C 229.174 100.402,220.599 100.449,220.131 100.966 M178.000 105.600 L 178.000 108.600 175.100 108.600 L 172.200 108.600 172.200 105.600 L 172.200 102.600 175.100 102.600 L 178.000 102.600 178.000 105.600 M227.800 105.600 L 227.800 108.600 224.900 108.600 L 222.000 108.600 222.000 105.600 L 222.000 102.600 224.900 102.600 L 227.800 102.600 227.800 105.600 M199.000 119.000 L 199.000 128.000 196.600 128.000 L 194.200 128.000 194.209 121.350 C 194.215 116.278,194.282 114.520,194.489 113.940 C 195.101 112.225,196.651 110.682,198.214 110.233 C 198.591 110.125,198.923 110.028,198.950 110.018 C 198.978 110.008,199.000 114.050,199.000 119.000 M202.772 110.686 C 205.479 112.085,205.800 113.223,205.800 121.408 L 205.800 128.000 203.400 128.000 L 201.000 128.000 201.000 119.014 L 201.000 110.028 201.562 110.189 C 201.871 110.278,202.415 110.501,202.772 110.686 M170.389 114.611 C 169.777 115.223,169.865 123.661,170.488 124.116 C 171.084 124.552,179.129 124.527,179.755 124.089 C 180.192 123.783,180.200 123.700,180.200 119.300 C 180.200 113.663,180.742 114.200,175.055 114.200 C 171.030 114.200,170.778 114.222,170.389 114.611 M220.245 114.511 C 219.808 114.817,219.800 114.900,219.800 119.300 C 219.800 123.700,219.808 123.783,220.245 124.089 C 220.871 124.527,228.916 124.552,229.512 124.116 C 230.135 123.661,230.223 115.223,229.611 114.611 C 229.057 114.057,221.015 113.971,220.245 114.511 M178.000 119.300 L 178.000 122.200 175.100 122.200 L 172.200 122.200 172.200 119.300 L 172.200 116.400 175.100 116.400 L 178.000 116.400 178.000 119.300 M227.800 119.300 L 227.800 122.200 224.900 122.200 L 222.000 122.200 222.000 119.300 L 222.000 116.400 224.900 116.400 L 227.800 116.400 227.800 119.300 " stroke="none" fill="#f43333" fill-rule="evenodd"></path><path id="path1" d="M199.029 1.339 C 197.304 4.265,173.200 46.066,173.200 46.131 C 173.200 46.169,173.673 46.196,174.250 46.192 L 175.300 46.184 187.400 25.167 C 194.055 13.607,199.635 3.986,199.800 3.787 C 200.076 3.452,201.068 5.106,212.400 24.803 L 224.700 46.183 225.750 46.191 C 226.328 46.196,226.800 46.167,226.800 46.127 C 226.800 45.876,200.235 0.112,200.055 0.052 C 199.932 0.011,199.470 0.590,199.029 1.339 M106.850 161.000 C 106.053 162.375,94.254 182.805,80.631 206.400 L 55.861 249.300 127.931 249.350 C 167.569 249.378,232.432 249.378,272.072 249.350 L 344.144 249.300 318.022 204.064 C 303.655 179.184,291.833 158.761,291.750 158.680 C 291.668 158.600,291.600 159.310,291.600 160.259 L 291.600 161.984 316.217 204.619 C 329.756 228.069,340.881 247.377,340.938 247.527 C 341.026 247.757,319.031 247.800,200.000 247.800 C 84.452 247.800,58.975 247.753,59.057 247.540 C 59.112 247.398,70.240 228.084,83.786 204.622 L 108.415 161.964 108.358 160.232 L 108.300 158.500 106.850 161.000 M228.200 175.200 L 228.200 180.800 228.800 180.800 L 229.400 180.800 229.400 175.200 L 229.400 169.600 228.800 169.600 L 228.200 169.600 228.200 175.200 M243.291 170.091 C 242.870 170.512,242.800 170.768,242.800 171.891 C 242.800 173.067,242.759 173.200,242.400 173.200 C 242.089 173.200,242.000 173.333,242.000 173.800 C 242.000 174.267,242.089 174.400,242.400 174.400 C 242.783 174.400,242.800 174.533,242.800 177.600 L 242.800 180.800 243.400 180.800 L 244.000 180.800 244.000 177.600 L 244.000 174.400 244.900 174.400 C 245.767 174.400,245.800 174.378,245.800 173.800 C 245.800 173.222,245.767 173.200,244.900 173.200 L 244.000 173.200 244.003 172.250 C 244.007 171.003,244.194 170.754,245.233 170.616 C 245.937 170.522,246.112 170.415,246.164 170.050 C 246.264 169.345,244.005 169.377,243.291 170.091 M185.943 170.124 C 185.469 170.598,185.808 171.425,186.450 171.363 C 187.025 171.307,187.100 171.231,187.100 170.700 C 187.100 170.105,186.340 169.727,185.943 170.124 M130.855 170.654 C 130.908 170.794,131.773 172.380,132.776 174.179 L 134.600 177.450 134.600 179.125 C 134.600 180.778,134.606 180.800,135.100 180.800 C 135.592 180.800,135.600 180.775,135.600 179.179 C 135.600 177.470,135.965 176.601,138.843 171.450 L 139.429 170.400 138.728 170.400 L 138.027 170.400 136.559 173.296 L 135.091 176.193 133.595 173.300 C 132.123 170.452,132.090 170.408,131.429 170.404 C 130.967 170.401,130.788 170.479,130.855 170.654 M164.600 175.600 L 164.600 180.800 166.750 180.799 C 168.554 180.799,169.007 180.733,169.562 180.395 C 171.088 179.464,171.248 176.384,169.836 175.126 L 169.416 174.753 169.808 173.984 C 170.982 171.684,169.800 170.400,166.510 170.400 L 164.600 170.400 164.600 175.600 M221.000 175.600 L 221.000 180.800 221.600 180.800 L 222.200 180.800 222.200 178.800 L 222.200 176.800 223.350 176.796 C 225.772 176.786,226.869 175.689,226.873 173.272 C 226.877 171.023,226.017 170.400,222.906 170.400 L 221.000 170.400 221.000 175.600 M168.281 171.628 C 169.796 172.318,168.892 174.472,167.050 174.560 L 165.800 174.619 165.800 173.010 L 165.800 171.400 166.791 171.400 C 167.335 171.400,168.006 171.502,168.281 171.628 M225.227 171.938 C 226.658 173.369,225.311 175.800,223.087 175.800 L 222.200 175.800 222.200 173.577 L 222.200 171.353 223.504 171.436 C 224.487 171.499,224.912 171.623,225.227 171.938 M238.000 172.477 C 238.000 172.985,237.901 173.179,237.600 173.258 C 237.330 173.329,237.200 173.531,237.200 173.881 C 237.200 174.267,237.303 174.400,237.600 174.400 C 237.979 174.400,238.000 174.533,238.000 176.955 C 238.000 180.273,238.276 180.791,240.050 180.797 C 240.971 180.800,241.000 180.782,241.000 180.205 C 241.000 179.651,240.959 179.618,240.400 179.730 C 239.328 179.944,239.200 179.639,239.200 176.876 L 239.200 174.400 240.000 174.400 C 240.756 174.400,240.800 174.367,240.800 173.800 C 240.800 173.233,240.756 173.200,240.000 173.200 C 239.219 173.200,239.200 173.183,239.200 172.500 C 239.200 171.856,239.152 171.800,238.600 171.800 C 238.052 171.800,238.000 171.858,238.000 172.477 M141.321 173.408 C 138.627 174.214,138.082 178.716,140.465 180.482 C 141.931 181.568,144.875 180.775,145.715 179.068 C 147.353 175.740,144.747 172.383,141.321 173.408 M147.200 176.415 L 147.200 179.631 147.760 180.191 C 148.494 180.925,149.640 181.122,150.814 180.717 C 151.343 180.534,151.727 180.489,151.767 180.606 C 151.803 180.712,152.096 180.800,152.417 180.800 L 153.000 180.800 153.000 177.000 L 153.000 173.200 152.400 173.200 L 151.800 173.200 151.800 176.268 L 151.800 179.336 151.291 179.568 C 149.062 180.583,148.400 179.779,148.400 176.055 L 148.400 173.200 147.800 173.200 L 147.200 173.200 147.200 176.415 M154.800 177.000 L 154.800 180.800 155.400 180.800 L 156.000 180.800 156.000 178.208 C 156.000 175.104,156.702 174.014,158.414 174.462 C 158.769 174.554,159.200 174.020,159.200 173.487 C 159.200 173.160,157.363 173.463,156.728 173.894 L 156.000 174.388 156.000 173.794 C 156.000 173.267,155.932 173.200,155.400 173.200 L 154.800 173.200 154.800 177.000 M172.001 175.950 C 172.002 179.096,172.199 180.059,172.940 180.545 C 173.618 180.989,175.297 180.982,176.150 180.532 C 176.716 180.234,176.800 180.229,176.800 180.495 C 176.800 180.687,176.985 180.800,177.300 180.800 L 177.800 180.800 177.800 177.000 L 177.800 173.200 177.300 173.200 L 176.800 173.200 176.800 176.260 L 176.800 179.320 176.136 179.560 C 173.759 180.419,173.314 179.907,173.236 176.217 L 173.171 173.200 172.586 173.200 L 172.000 173.200 172.001 175.950 M181.200 173.318 C 178.618 174.274,178.785 176.496,181.505 177.402 C 183.404 178.034,183.879 178.704,182.995 179.504 C 182.538 179.918,180.701 179.975,179.996 179.598 C 179.658 179.417,179.566 179.456,179.418 179.841 C 178.818 181.405,183.498 181.351,184.308 179.785 C 185.018 178.412,184.426 177.237,182.747 176.688 C 179.826 175.733,179.802 174.258,182.710 174.339 C 183.922 174.373,184.613 173.946,184.129 173.463 C 183.974 173.307,181.553 173.187,181.200 173.318 M185.800 177.000 L 185.800 180.800 186.400 180.800 L 187.000 180.800 187.000 177.000 L 187.000 173.200 186.400 173.200 L 185.800 173.200 185.800 177.000 M188.800 177.000 L 188.800 180.800 189.400 180.800 L 190.000 180.800 190.000 177.832 L 190.000 174.864 190.509 174.632 C 192.723 173.623,193.400 174.404,193.400 177.966 L 193.400 180.800 194.000 180.800 L 194.600 180.800 194.600 177.715 C 194.600 174.071,194.372 173.540,192.698 173.289 C 191.901 173.170,191.478 173.244,190.350 173.701 C 190.103 173.801,190.000 173.748,190.000 173.521 C 190.000 173.298,189.818 173.200,189.400 173.200 L 188.800 173.200 188.800 177.000 M198.300 173.483 C 195.615 174.682,195.287 179.278,197.797 180.550 C 199.251 181.287,202.285 180.996,202.161 180.131 C 202.113 179.789,201.976 179.707,201.500 179.735 C 198.562 179.907,198.002 179.733,197.483 178.491 C 196.863 177.007,196.874 177.000,199.900 177.000 L 202.600 177.000 202.600 176.150 C 202.599 173.879,200.429 172.533,198.300 173.483 M205.100 173.481 C 202.795 174.498,203.302 176.683,206.036 177.511 C 207.721 178.021,208.244 179.041,207.126 179.639 C 206.592 179.926,204.954 179.897,204.383 179.591 C 204.041 179.408,203.913 179.416,203.778 179.629 C 203.366 180.278,203.586 180.568,204.676 180.812 C 208.950 181.769,210.677 177.706,206.511 176.495 C 203.976 175.758,204.420 174.350,207.200 174.314 C 208.162 174.302,208.308 174.247,208.360 173.877 C 208.457 173.199,206.326 172.939,205.100 173.481 M211.263 173.408 C 208.906 174.136,209.412 176.710,212.062 177.480 C 213.770 177.977,214.288 178.871,213.259 179.545 C 212.663 179.936,211.089 179.969,210.410 179.605 C 210.088 179.433,209.974 179.474,209.783 179.832 C 209.474 180.409,209.889 180.720,211.207 180.901 C 215.152 181.444,216.595 177.777,212.900 176.601 C 210.223 175.749,210.354 174.262,213.099 174.339 C 214.261 174.371,214.986 173.920,214.521 173.454 C 214.340 173.274,211.813 173.238,211.263 173.408 M232.700 173.326 C 230.877 173.790,230.329 174.283,230.894 174.952 C 230.918 174.981,231.323 174.868,231.794 174.702 C 233.857 173.974,235.001 174.395,235.149 175.936 L 235.245 176.938 233.810 177.072 C 231.272 177.308,230.220 178.079,230.488 179.509 C 230.737 180.834,231.954 181.248,234.000 180.702 C 234.676 180.522,235.126 180.484,235.167 180.604 C 235.203 180.712,235.496 180.800,235.817 180.800 L 236.400 180.800 236.400 177.994 C 236.400 173.808,235.461 172.624,232.700 173.326 M248.048 173.609 C 245.586 174.865,245.307 179.314,247.616 180.508 C 250.424 181.961,253.200 180.166,253.200 176.898 C 253.200 173.921,250.640 172.287,248.048 173.609 M254.400 177.000 L 254.400 180.800 254.900 180.800 L 255.400 180.800 255.400 178.201 L 255.400 175.603 256.250 174.986 C 256.878 174.530,257.266 174.388,257.737 174.443 C 258.314 174.510,258.800 174.074,258.800 173.491 C 258.800 173.060,256.739 173.466,256.107 174.021 L 255.400 174.641 255.400 173.921 C 255.400 173.285,255.341 173.200,254.900 173.200 L 254.400 173.200 254.400 177.000 M259.400 177.000 L 259.400 180.800 259.900 180.800 L 260.400 180.800 260.400 177.832 L 260.400 174.864 260.909 174.632 C 263.092 173.638,263.800 174.462,263.800 178.000 L 263.800 180.800 264.410 180.800 L 265.020 180.800 264.960 177.809 C 264.892 174.432,264.907 174.400,266.571 174.400 C 268.002 174.400,268.091 174.595,268.169 177.884 L 268.238 180.800 268.719 180.800 L 269.200 180.800 269.200 177.687 C 269.200 175.839,269.112 174.410,268.984 174.170 C 268.493 173.253,266.674 172.953,265.312 173.564 C 264.557 173.903,264.495 173.903,263.820 173.559 C 262.961 173.121,262.217 173.104,261.269 173.500 C 260.874 173.665,260.517 173.800,260.476 173.800 C 260.434 173.800,260.400 173.665,260.400 173.500 C 260.400 173.313,260.211 173.200,259.900 173.200 L 259.400 173.200 259.400 177.000 M143.967 174.739 C 144.894 175.319,145.255 177.002,144.724 178.273 C 143.815 180.448,140.810 180.266,140.200 177.999 C 139.512 175.445,141.854 173.418,143.967 174.739 M250.487 174.400 C 251.497 174.400,252.355 176.407,251.981 177.894 C 251.301 180.595,247.703 180.455,247.291 177.711 C 247.011 175.846,248.560 173.881,249.966 174.317 C 250.113 174.363,250.347 174.400,250.487 174.400 M200.938 174.850 C 201.985 176.008,201.776 176.200,199.470 176.200 L 197.377 176.200 197.739 175.582 C 198.441 174.382,200.158 173.989,200.938 174.850 M168.901 176.050 C 170.646 177.551,169.498 179.800,166.987 179.800 L 165.800 179.800 165.800 177.700 L 165.800 175.600 167.089 175.600 C 168.137 175.600,168.475 175.684,168.901 176.050 M235.200 178.580 C 235.200 179.713,234.757 180.000,233.010 180.000 C 230.551 180.000,231.117 178.431,233.766 177.903 C 234.500 177.757,235.123 177.629,235.150 177.619 C 235.178 177.608,235.200 178.041,235.200 178.580 " stroke="none" fill="#040404" fill-rule="evenodd"></path><path id="path2" d="M176.681 73.700 C 176.681 75.460,176.712 76.153,176.749 75.241 C 176.786 74.328,176.786 72.888,176.748 72.041 C 176.711 71.193,176.681 71.940,176.681 73.700 M200.600 82.700 C 200.973 83.085,201.323 83.400,201.378 83.400 C 201.433 83.400,201.173 83.085,200.800 82.700 C 200.427 82.315,200.077 82.000,200.022 82.000 C 199.967 82.000,200.227 82.315,200.600 82.700 M207.000 89.063 C 207.000 89.097,207.293 89.390,207.650 89.713 L 208.300 90.300 207.713 89.650 C 207.165 89.044,207.000 88.908,207.000 89.063 M206.400 94.263 C 206.400 94.297,206.693 94.590,207.050 94.913 L 207.700 95.500 207.113 94.850 C 206.565 94.244,206.400 94.108,206.400 94.263 M209.200 97.063 C 209.200 97.097,209.493 97.390,209.850 97.713 L 210.500 98.300 209.913 97.650 C 209.365 97.044,209.200 96.908,209.200 97.063 M189.356 136.788 C 186.882 137.280,186.808 137.310,186.687 137.861 C 186.526 138.593,186.482 138.568,188.162 138.724 L 189.600 138.857 189.600 149.822 L 189.600 160.786 188.350 161.153 C 187.202 161.490,187.095 161.569,187.040 162.124 L 186.980 162.728 191.374 162.728 L 195.767 162.728 195.871 162.214 C 196.004 161.559,195.707 161.332,194.308 161.019 L 193.200 160.771 193.200 148.686 C 193.200 142.039,193.177 136.600,193.149 136.600 C 193.120 136.600,192.828 136.529,192.499 136.441 C 192.095 136.335,191.071 136.448,189.356 136.788 M206.931 137.916 C 199.099 139.812,195.310 149.135,199.105 157.171 C 202.042 163.389,211.031 165.337,216.522 160.947 C 217.624 160.066,217.739 159.833,217.393 159.187 C 217.113 158.664,216.668 158.700,215.868 159.311 C 210.506 163.401,204.092 161.198,202.385 154.680 C 200.316 146.781,204.199 139.700,210.600 139.700 C 214.610 139.700,214.559 139.656,214.918 143.445 L 215.046 144.790 215.755 144.923 C 216.802 145.120,217.800 142.688,217.800 139.940 L 217.800 139.029 216.666 138.604 C 213.982 137.600,209.535 137.286,206.931 137.916 M131.059 138.335 C 130.771 139.083,131.101 139.468,132.300 139.785 L 133.500 140.102 133.552 150.455 L 133.604 160.809 133.134 160.987 C 132.875 161.086,132.244 161.229,131.732 161.306 C 130.844 161.439,130.800 161.476,130.800 162.092 L 130.800 162.739 135.387 162.735 L 139.974 162.731 140.093 162.256 C 140.263 161.578,140.154 161.486,138.702 161.093 L 137.400 160.741 137.400 156.270 L 137.400 151.800 139.386 151.800 L 141.372 151.800 142.067 153.250 C 142.449 154.048,143.229 155.825,143.801 157.200 C 145.918 162.289,148.166 164.018,151.300 162.967 C 152.563 162.543,152.489 161.561,151.181 161.373 C 149.514 161.135,148.934 160.392,146.911 155.900 C 146.266 154.470,145.482 152.784,145.169 152.154 L 144.598 151.008 145.606 150.497 C 148.118 149.224,149.094 147.658,149.096 144.900 C 149.098 141.487,147.655 139.667,143.900 138.346 C 143.016 138.034,131.178 138.025,131.059 138.335 M142.610 140.339 C 148.709 143.043,144.884 151.386,138.126 150.118 L 137.400 149.982 137.400 145.095 L 137.400 140.208 137.950 140.086 C 138.253 140.020,138.590 139.930,138.700 139.886 C 139.233 139.676,141.781 139.971,142.610 140.339 M175.300 144.688 C 174.420 144.839,173.205 145.138,172.600 145.352 L 171.500 145.742 171.502 147.021 C 171.504 148.948,171.957 150.601,172.482 150.597 C 173.655 150.590,173.738 150.476,173.986 148.539 C 174.115 147.535,174.238 146.698,174.260 146.680 C 174.282 146.662,174.777 146.547,175.360 146.424 C 179.032 145.649,180.288 146.763,180.296 150.800 L 180.300 153.100 178.200 153.222 C 172.169 153.574,169.440 156.117,170.578 160.323 C 171.409 163.394,176.458 164.198,179.783 161.789 C 180.341 161.385,180.631 161.273,180.677 161.445 C 181.070 162.914,181.051 162.894,182.204 163.013 C 183.346 163.131,185.895 162.972,186.097 162.770 C 186.694 162.173,186.269 161.498,185.100 161.186 L 183.900 160.867 183.790 154.583 C 183.675 147.952,183.637 147.669,182.652 146.168 C 181.684 144.695,178.728 144.100,175.300 144.688 M226.871 144.601 C 222.005 145.313,218.955 150.423,219.996 156.123 C 221.713 165.530,234.748 165.976,237.098 156.708 C 238.934 149.468,233.947 143.565,226.871 144.601 M159.605 144.911 C 150.996 147.298,151.421 161.306,160.153 163.009 C 163.527 163.667,168.589 161.752,167.838 160.102 C 167.599 159.579,167.123 159.439,166.886 159.822 C 166.631 160.234,164.654 160.974,163.439 161.111 C 159.752 161.529,157.772 159.440,157.313 154.650 L 157.193 153.400 162.457 153.400 C 168.531 153.400,168.200 153.510,168.200 151.493 C 168.200 146.328,164.557 143.538,159.605 144.911 M249.400 144.957 C 248.062 145.382,246.864 146.004,246.027 146.708 L 245.400 147.236 245.400 146.143 C 245.400 144.730,245.136 144.666,241.822 145.272 C 239.314 145.731,239.009 145.891,239.003 146.750 C 239.000 147.137,239.105 147.200,239.750 147.202 C 240.163 147.203,240.838 147.260,241.250 147.328 L 242.000 147.452 242.000 154.117 L 242.000 160.781 241.250 160.989 C 240.838 161.104,240.394 161.198,240.264 161.199 C 239.874 161.201,239.400 161.798,239.400 162.287 L 239.400 162.746 243.550 162.736 C 247.835 162.727,247.991 162.697,247.997 161.882 C 247.999 161.543,247.771 161.394,246.800 161.100 L 245.600 160.737 245.600 154.985 L 245.600 149.234 246.588 148.509 C 248.966 146.763,251.346 146.822,252.346 148.652 C 252.657 149.220,252.708 150.005,252.766 155.045 L 252.832 160.789 251.616 161.128 C 250.456 161.450,250.400 161.495,250.400 162.097 L 250.400 162.729 254.550 162.714 L 258.700 162.700 258.760 162.079 C 258.819 161.478,258.783 161.448,257.610 161.119 L 256.400 160.779 256.400 155.113 L 256.400 149.447 257.039 148.823 C 258.497 147.397,260.807 146.883,261.951 147.730 C 263.050 148.543,263.095 148.813,263.164 155.045 L 263.227 160.791 262.014 161.128 C 260.858 161.449,260.800 161.496,260.800 162.093 L 260.800 162.720 265.000 162.728 L 269.200 162.735 269.200 162.078 C 269.200 161.445,269.155 161.408,268.000 161.084 L 266.800 160.747 266.800 154.762 C 266.800 147.994,266.719 147.418,265.576 146.120 C 263.634 143.913,259.724 144.104,256.949 146.541 C 256.200 147.199,255.800 147.364,255.800 147.015 C 255.800 145.397,251.934 144.154,249.400 144.957 M163.538 146.706 C 164.255 147.177,165.316 151.046,164.776 151.225 C 164.734 151.239,163.061 151.351,161.059 151.475 L 157.417 151.700 157.537 151.200 C 158.438 147.431,161.334 145.262,163.538 146.706 M230.358 146.581 C 234.381 148.643,234.590 159.237,230.648 161.275 C 227.508 162.899,224.216 160.160,223.828 155.600 C 223.246 148.768,226.327 144.513,230.358 146.581 M180.200 157.101 L 180.200 159.359 179.507 159.967 C 177.256 161.944,174.342 161.292,174.055 158.747 C 173.782 156.326,175.072 155.125,178.270 154.819 C 180.300 154.624,180.200 154.507,180.200 157.101 " stroke="none" fill="#fc4444" fill-rule="evenodd"></path><path id="path3" d="M223.281 73.700 C 223.281 75.460,223.312 76.153,223.349 75.241 C 223.386 74.328,223.386 72.888,223.348 72.041 C 223.311 71.193,223.281 71.940,223.281 73.700 M202.400 84.500 C 202.997 85.105,203.531 85.600,203.586 85.600 C 203.641 85.600,203.197 85.105,202.600 84.500 C 202.003 83.895,201.469 83.400,201.414 83.400 C 201.359 83.400,201.803 83.895,202.400 84.500 M208.300 96.200 C 208.730 96.640,209.126 97.000,209.181 97.000 C 209.236 97.000,208.930 96.640,208.500 96.200 C 208.070 95.760,207.674 95.400,207.619 95.400 C 207.564 95.400,207.870 95.760,208.300 96.200 M216.895 112.400 C 216.895 121.035,216.920 124.568,216.950 120.250 C 216.980 115.933,216.980 108.868,216.950 104.550 C 216.920 100.233,216.895 103.765,216.895 112.400 " stroke="none" fill="#f82828" fill-rule="evenodd"></path><path id="path4" d="M223.281 73.700 C 223.281 75.460,223.312 76.153,223.349 75.241 C 223.386 74.328,223.386 72.888,223.348 72.041 C 223.311 71.193,223.281 71.940,223.281 73.700 M202.400 84.500 C 202.997 85.105,203.531 85.600,203.586 85.600 C 203.641 85.600,203.197 85.105,202.600 84.500 C 202.003 83.895,201.469 83.400,201.414 83.400 C 201.359 83.400,201.803 83.895,202.400 84.500 M208.300 96.200 C 208.730 96.640,209.126 97.000,209.181 97.000 C 209.236 97.000,208.930 96.640,208.500 96.200 C 208.070 95.760,207.674 95.400,207.619 95.400 C 207.564 95.400,207.870 95.760,208.300 96.200 M216.895 112.400 C 216.895 121.035,216.920 124.568,216.950 120.250 C 216.980 115.933,216.980 108.868,216.950 104.550 C 216.920 100.233,216.895 103.765,216.895 112.400 " stroke="none" fill="#f82828" fill-rule="evenodd"></path></g></svg>